<svg width="64" height="64" viewBox="0 0 64 64" fill="none" xmlns="http://www.w3.org/2000/svg">
<g clip-path="url(#clip0_1490_357)">
<path d="M32 62.7451C48.98 62.7451 62.7451 48.98 62.7451 32C62.7451 15.0199 48.98 1.25488 32 1.25488C15.0199 1.25488 1.25488 15.0199 1.25488 32C1.25488 48.98 15.0199 62.7451 32 62.7451Z" fill="#FDCB50"/>
<path d="M38.3924 62.0856C36.3306 62.5211 34.1923 62.7495 32 62.7495C15.0086 62.7495 1.25488 48.9995 1.25488 32.0044C1.25488 15.013 15.0061 1.25928 32 1.25928C34.1923 1.25928 36.3294 1.48767 38.3912 1.92312C24.4693 4.8621 14.0386 17.2053 14.0386 32.0044C14.0386 46.8072 24.4718 59.1479 38.3924 62.0856Z" fill="#FD8F01"/>
<path d="M52.8441 32C52.8441 43.4933 43.4932 52.8442 31.9999 52.8442C20.5067 52.8442 11.1558 43.4933 11.1558 32H52.8441Z" fill="#FD7DA0"/>
<path d="M52.8444 32.318C52.8444 34.94 52.5199 36.9703 51.3661 39.582H12.583C11.6781 37.2944 11.1553 34.94 11.1553 32.318H52.8444Z" fill="#DB4B86"/>
<path d="M32 64C14.056 64 0 49.9438 0 32C0 14.0562 14.056 0 32 0C49.944 0 64 14.0562 64 32C64 49.9438 49.944 64 32 64ZM32 2.5098C15.4634 2.5098 2.5098 15.4635 2.5098 32C2.5098 48.5365 15.4634 61.4902 32 61.4902C48.5366 61.4902 61.4902 48.5365 61.4902 32C61.4902 15.4635 48.5366 2.5098 32 2.5098Z" fill="#1C2E72"/>
<path d="M32 54.0991C19.8145 54.0991 9.90088 44.1855 9.90088 32C9.90088 31.3071 10.4627 30.7451 11.1558 30.7451H52.8441C53.5372 30.7451 54.099 31.3071 54.099 32C54.099 44.1855 44.1854 54.0991 32 54.0991ZM12.4505 33.2549C13.0992 43.4743 21.6197 51.5893 32 51.5893C42.3802 51.5893 50.9007 43.4743 51.5494 33.2549H12.4505Z" fill="#1C2E72"/>
<path d="M26.7892 22.8328C26.0961 22.8328 25.5343 22.2709 25.5343 21.5779C25.5343 19.3965 23.7596 17.6219 21.5782 17.6219C19.3968 17.6219 17.6221 19.3967 17.6221 21.5779C17.6221 22.2709 17.0603 22.8328 16.3672 22.8328C15.6741 22.8328 15.1123 22.2709 15.1123 21.5779C15.1123 18.0126 18.0129 15.1121 21.5782 15.1121C25.1435 15.1121 28.0441 18.0126 28.0441 21.5779C28.0441 22.271 27.4823 22.8328 26.7892 22.8328Z" fill="#1C2E72"/>
<path d="M47.6329 22.8328C46.9398 22.8328 46.378 22.2709 46.378 21.5779C46.378 19.3965 44.6033 17.6219 42.4219 17.6219C40.2405 17.6219 38.4659 19.3967 38.4659 21.5779C38.4659 22.2709 37.904 22.8328 37.211 22.8328C36.5179 22.8328 35.9561 22.2709 35.9561 21.5779C35.9561 18.0126 38.8566 15.1121 42.4219 15.1121C45.9872 15.1121 48.8878 18.0126 48.8878 21.5779C48.8878 22.271 48.326 22.8328 47.6329 22.8328Z" fill="#1C2E72"/>
</g>
<defs>
<clipPath id="clip0_1490_357">
<rect width="64" height="64" fill="white"/>
</clipPath>
</defs>
</svg>
