<svg width="64" height="64" viewBox="0 0 64 64" fill="none" xmlns="http://www.w3.org/2000/svg">
<g clip-path="url(#clip0_1514_5626)">
<path d="M59.4535 35.5078C59.4535 35.5078 56.5763 39.2407 53.151 38.7485C53.151 38.7485 59.4937 29.0419 51.1402 17.9163C47.0593 24.993 30.673 20.5534 38.4553 1.25C14.8813 6.54763 11.1202 30.6009 11.1202 30.6009C10.6194 32.4878 10.337 34.4634 10.3045 36.4996C6.89891 36.4204 4.94354 32.883 4.94354 32.883C4.91529 33.3894 4.89941 33.8993 4.89941 34.4128C4.89929 49.3354 16.2552 62.75 31.2147 62.75C31.7662 62.75 34.1465 62.75 34.8977 62.75C48.4818 62.75 59.4939 50.4476 59.4938 36.8969C59.4937 36.4305 59.4793 35.9675 59.4535 35.5078Z" fill="#FD6050"/>
<path d="M20.3639 30.4805C20.3639 17.75 27.6289 6.71638 38.2389 1.29938C14.8583 6.695 11.1202 30.6009 11.1202 30.6009C10.6194 32.4878 10.337 34.4634 10.3045 36.4996C6.89891 36.4204 4.94354 32.883 4.94354 32.883C4.91529 33.3894 4.89941 33.8993 4.89941 34.4128C4.89929 49.3354 16.2552 62.75 31.2147 62.75H34.8977C37.5278 62.75 40.0615 62.2887 42.4377 61.4466C29.5924 57.0213 20.3639 44.8286 20.3639 30.4805Z" fill="#BC3C85"/>
<path d="M17.7593 47.8456C17.7593 33.0196 32.5092 25.1469 32.5092 25.1469C32.5092 25.1469 47.259 32.7201 47.259 47.8456C47.259 55.939 40.6553 62.5001 32.5092 62.5001C24.363 62.5001 17.7593 55.939 17.7593 47.8456Z" fill="#FDCB50"/>
<path d="M20.9098 36.4652C19.0699 39.6246 17.7593 43.4262 17.7593 47.8456C17.7593 55.939 24.363 62.5001 32.5092 62.5001C35.2343 62.5001 37.7868 61.7657 39.9773 60.4855C30.1899 56.1961 22.9032 47.2585 20.9098 36.4652Z" fill="#FD8F01"/>
<path d="M36.0105 40.9704C33.62 40.9704 32.7057 42.4737 32.4302 43.102C32.1551 42.4737 31.2474 40.9704 28.8569 40.9704C26.4257 40.9704 24.2871 42.6331 24.2871 45.6692C24.2871 46.8979 24.537 47.8072 25.2306 48.982C26.6441 51.3757 32.4299 54.6582 32.4299 54.6582C32.4299 54.6582 38.2174 51.3945 39.6419 48.982C40.3355 47.8074 40.5836 46.8979 40.5836 45.6692C40.5837 42.6331 38.4416 40.9704 36.0105 40.9704Z" fill="white"/>
<path d="M8.97359 19.3268H7.99009V18.3433C7.99009 17.6529 7.43047 17.0933 6.74009 17.0933C6.04972 17.0933 5.49009 17.6529 5.49009 18.3433V19.3268H4.50659C3.81622 19.3268 3.25659 19.8864 3.25659 20.5768C3.25659 21.2671 3.81622 21.8268 4.50659 21.8268H5.49009V22.8104C5.49009 23.5008 6.04972 24.0604 6.74009 24.0604C7.43047 24.0604 7.99009 23.5008 7.99009 22.8104V21.8268H8.97372C9.66409 21.8268 10.2237 21.2671 10.2237 20.5768C10.2237 19.8864 9.66397 19.3268 8.97359 19.3268Z" fill="#6864F7"/>
<path d="M45.4048 7.87674C44.7144 7.87674 44.1548 7.31711 44.1548 6.62674V5.71011C44.1548 5.01974 44.7144 4.46011 45.4048 4.46011C46.0952 4.46011 46.6548 5.01974 46.6548 5.71011V6.62674C46.6548 7.31711 46.0952 7.87674 45.4048 7.87674Z" fill="#6864F7"/>
<path d="M45.4048 14.8755C44.7144 14.8755 44.1548 14.3159 44.1548 13.6255V12.709C44.1548 12.0186 44.7144 11.459 45.4048 11.459C46.0952 11.459 46.6548 12.0186 46.6548 12.709V13.6255C46.6548 14.3159 46.0952 14.8755 45.4048 14.8755Z" fill="#6864F7"/>
<path d="M49.3721 10.9179H48.4534C47.763 10.9179 47.2034 10.3583 47.2034 9.66788C47.2034 8.9775 47.763 8.41788 48.4534 8.41788H49.3721C50.0625 8.41788 50.6221 8.9775 50.6221 9.66788C50.6221 10.3583 50.0625 10.9179 49.3721 10.9179Z" fill="#6864F7"/>
<path d="M42.3563 10.9179H41.4375C40.7471 10.9179 40.1875 10.3583 40.1875 9.66788C40.1875 8.9775 40.7471 8.41788 41.4375 8.41788H42.3563C43.0466 8.41788 43.6063 8.9775 43.6063 9.66788C43.6063 10.3583 43.0466 10.9179 42.3563 10.9179Z" fill="#6864F7"/>
<path d="M60.7018 35.4381C60.6728 34.9168 60.3225 34.4683 59.8238 34.3138C59.325 34.159 58.7825 34.3311 58.4638 34.7446C58.4458 34.7681 57.0775 36.4853 55.2993 37.2178C55.7627 36.0732 56.254 34.5278 56.516 32.68C57.0432 28.9634 56.7119 23.2549 52.1399 17.1656C51.8878 16.8298 51.4832 16.6432 51.0648 16.6684C50.6457 16.6938 50.2673 16.9279 50.0574 17.2916C48.6273 19.7721 45.162 20.5732 42.1692 19.1157C38.3024 17.233 35.6008 11.6736 39.6147 1.71725C39.7884 1.28625 39.7088 0.7945 39.4079 0.4405C39.1069 0.086375 38.6342 -0.0715 38.1813 0.03025C32.6128 1.28162 27.6555 3.66138 23.4475 7.10325C20.0865 9.85238 17.1997 13.2774 14.8673 17.2829C11.0829 23.7824 10.0182 29.6134 9.89641 30.34C9.49478 31.8681 9.23478 33.4354 9.11978 35.0163C7.20566 34.3177 6.04966 32.2993 6.03778 32.2781C5.76828 31.7905 5.20816 31.5404 4.66541 31.6642C4.12216 31.7884 3.72678 32.257 3.69578 32.8133C3.66516 33.361 3.64966 33.8993 3.64966 34.4126C3.64966 38.2385 4.35353 41.9981 5.74191 45.5869C7.10103 49.1001 9.04478 52.2721 11.5194 55.0146C16.7472 60.809 23.7418 64 31.2147 64H34.8977C41.7423 64 48.2434 61.0729 53.2037 55.7578C57.9955 50.623 60.7438 43.7485 60.7438 36.8968C60.7438 36.4285 60.7297 35.9378 60.7018 35.4381ZM51.3759 54.0521C46.8938 58.855 41.0417 61.5 34.8977 61.5H31.2147C24.4585 61.5 18.123 58.602 13.3753 53.34C9.17803 48.6881 6.61691 42.5247 6.20741 36.2007C7.24253 37.0174 8.60653 37.7104 10.2754 37.7492C10.6112 37.754 10.9308 37.6314 11.1709 37.4006C11.411 37.1698 11.549 36.8526 11.5543 36.5195C11.5845 34.6261 11.8449 32.7426 12.3283 30.9214C12.3394 30.8794 12.3484 30.8369 12.355 30.7939C12.364 30.7361 13.302 24.9391 17.0275 18.541C21.5979 10.6925 28.1287 5.49137 36.4633 3.05413C35.0668 7.30275 34.7667 11.0711 35.573 14.2809C36.3858 17.5164 38.3397 20.0317 41.0747 21.3635C44.6085 23.0844 48.6667 22.4548 51.0893 20.0215C53.6255 23.9226 54.6232 28.0184 54.056 32.2175C53.5795 35.746 52.1174 38.0448 52.1048 38.0645C51.8712 38.422 51.8363 38.8741 52.0122 39.2632C52.188 39.6524 52.5507 39.9248 52.9733 39.9855C55.0228 40.2803 56.8563 39.3957 58.1943 38.4157C57.8242 44.1292 55.3855 49.7557 51.3759 54.0521Z" fill="#052A75"/>
</g>
<defs>
<clipPath id="clip0_1514_5626">
<rect width="64" height="64" fill="white"/>
</clipPath>
</defs>
</svg>
