<svg width="64" height="64" viewBox="0 0 64 64" fill="none" xmlns="http://www.w3.org/2000/svg">
<g clip-path="url(#clip0_1514_5297)">
<path d="M55.3756 45.9528L40.8712 42.1583C39.5248 41.8033 38.1036 41.8545 36.7847 42.3058C33.9234 43.2833 31.9995 45.9709 31.9995 48.9961V55.4875L58.535 54.3805C58.535 49.2653 61.8113 47.6365 61.8113 47.6365L55.3756 45.9528Z" fill="white"/>
<path d="M8.58038 45.9528L23.0848 42.1583C24.4311 41.8033 25.8524 41.8545 27.1712 42.3058C30.0325 43.2833 31.9564 45.9709 31.9564 48.9961V55.4875L5.42087 54.3805C5.42087 49.2653 2.14453 47.6365 2.14453 47.6365L8.58038 45.9528Z" fill="#D2DCFD"/>
<path d="M34.2737 60.592H29.7266C26.2184 60.592 23.2423 58.2695 22.2556 55.081L4.0512 60.0118C2.9577 60.289 1.84664 59.6272 1.56944 58.5337L1.31897 57.5457C1.04177 56.4522 1.70359 55.3411 2.79708 55.0639L22.9763 49.6324C25.0305 49.112 26.9929 50.7116 27.0127 52.801C27.0267 54.2814 28.3053 55.4874 29.7888 55.4874H34.2115C35.7037 55.4874 36.9885 54.2673 36.9878 52.775C36.9866 50.6957 39.0052 49.1211 41.0241 49.6324L61.2031 55.0639C62.2966 55.3411 62.9584 56.4522 62.6812 57.5457L62.4308 58.5337C62.1536 59.6272 61.0425 60.2889 59.949 60.0118L41.7446 55.081C40.758 58.2695 37.782 60.592 34.2737 60.592Z" fill="#D46B5C"/>
<path d="M3.78743 33.8848C5.18558 33.8848 6.31901 32.7325 6.31901 31.3111C6.31901 29.8897 5.18558 28.7374 3.78743 28.7374C2.38928 28.7374 1.25586 29.8897 1.25586 31.3111C1.25586 32.7325 2.38928 33.8848 3.78743 33.8848Z" fill="#FDCB50"/>
<path d="M16.9661 32.1907C16.9661 32.1907 22.3345 28.2381 31.972 28.2381C41.6095 28.2381 46.979 32.1907 46.979 32.1907V19.9712L60.1576 15.7499L31.9719 3.40796L3.78735 15.7497L16.966 19.9711L16.9661 32.1907Z" fill="#BC9AF4"/>
<path d="M46.9789 32.1907C46.9789 32.1907 41.6106 36.1434 31.9731 36.1434C22.3355 36.1434 16.9661 32.1907 16.9661 32.1907C16.9661 32.1907 22.3344 28.2381 31.9719 28.2381C41.6095 28.2381 46.9789 32.1907 46.9789 32.1907Z" fill="#FD6050"/>
<path d="M34.9177 28.3647C33.9853 28.2831 33.004 28.2379 31.9725 28.2379C22.3351 28.2379 16.9668 32.1908 16.9668 32.1908L16.9655 19.9709L3.78687 15.7495L23.7769 6.99677C23.5824 8.10105 23.482 9.23545 23.482 10.3924C23.482 18.2542 28.1364 25.0606 34.9177 28.3647Z" fill="#6864F7"/>
<path d="M3.82958 29.9923C3.13651 29.9923 2.57471 29.4305 2.57471 28.7374V15.7496C2.57471 15.0566 3.13651 14.4948 3.82958 14.4948C4.52264 14.4948 5.08445 15.0566 5.08445 15.7496V28.7374C5.08445 29.4305 4.52252 29.9923 3.82958 29.9923Z" fill="#FDCB50"/>
<path d="M60.661 14.6003L32.4753 2.25849C32.1543 2.11794 31.7894 2.11794 31.4687 2.25849L3.28404 14.6003C2.80593 14.8096 2.5074 15.2929 2.53413 15.8142C2.56086 16.3354 2.90758 16.7856 3.40463 16.9449L15.7113 20.8869V32.1906C15.7138 32.584 15.9031 32.9668 16.2222 33.2012C23.9545 38.7512 40.2051 38.7185 47.8077 33.1304C48.0769 32.899 48.2315 32.5445 48.2339 32.1906V20.8869L60.5404 16.9449C61.6337 16.597 61.7135 15.0587 60.661 14.6003ZM45.5311 29.9099C37.443 25.9705 26.2794 25.9906 18.221 30.0057V19.501C25.3738 15.0311 38.629 15.0613 45.724 19.5012V19.9712C45.7241 19.9715 45.724 30.0054 45.724 30.0059C45.66 29.9739 45.5969 29.9423 45.5311 29.9099ZM31.9731 34.8884C25.9958 34.8884 21.7173 33.2888 19.4845 32.1906C26.9319 28.5829 37.0122 28.5833 44.4603 32.1906C42.2268 33.2894 37.9494 34.8884 31.9731 34.8884ZM48.117 18.2889C47.791 17.5518 42.1306 13.7132 31.972 13.6084C21.8355 13.707 16.1522 17.5532 15.828 18.2889L7.33212 15.5675L31.972 4.77789L56.613 15.5675L48.117 18.2889Z" fill="#052A75"/>
<path d="M3.78742 35.1397C1.69957 35.1397 0.000976562 33.4222 0.000976562 31.3111C0.000976562 29.2 1.69957 27.4825 3.78742 27.4825C5.87527 27.4825 7.57387 29.2 7.57387 31.3111C7.57387 33.4222 5.87527 35.1397 3.78742 35.1397ZM3.78742 29.9922C3.08344 29.9922 2.51072 30.5839 2.51072 31.3111C2.51072 32.0383 3.08344 32.63 3.78742 32.63C4.4914 32.63 5.06413 32.0383 5.06413 31.3111C5.06413 30.5839 4.4914 29.9922 3.78742 29.9922Z" fill="#052A75"/>
<path d="M63.5344 55.3568C63.0854 54.603 62.3709 54.0683 61.5215 53.8503L59.8392 53.3976C60.1791 50.0221 62.2087 48.8483 62.3759 48.7574C62.8514 48.5323 63.1224 48.0409 63.0749 47.5165C63.027 46.99 62.6404 46.5564 62.1288 46.4226L41.1909 40.9451C39.6 40.5256 37.9359 40.5856 36.3789 41.1185C34.5153 41.7551 32.991 43.0085 31.9996 44.6032C31.0085 43.0084 29.4847 41.7553 27.622 41.1188C26.065 40.5855 24.4006 40.5255 22.8112 40.9445L1.85176 46.4328C1.34027 46.5667 0.953771 47.0003 0.906086 47.5268C0.858526 48.0512 1.1297 48.5426 1.60505 48.7676C1.77207 48.8585 3.79994 50.0311 4.14139 53.4027L2.47881 53.8502C1.62939 54.0682 0.914745 54.6029 0.465752 55.3567C0.0150029 56.1134 -0.113998 57.0004 0.102467 57.8541L0.352939 58.8422C0.799548 60.6045 2.5964 61.6751 4.35949 61.2282C4.36601 61.2266 4.37254 61.2248 4.37919 61.2231L21.4956 56.587C22.1267 57.9384 23.0933 59.1367 24.2927 60.0361C25.8725 61.2207 27.7515 61.8469 29.7267 61.8469H34.2737C36.2489 61.8469 38.1278 61.2207 39.7077 60.0361C40.9071 59.1367 41.8737 57.9384 42.5048 56.587L59.6212 61.2231C59.6277 61.2248 59.6343 61.2266 59.6409 61.2282C61.4034 61.6752 63.2006 60.6045 63.6475 58.8421L63.8979 57.854C64.1141 57.0004 63.9851 56.1135 63.5344 55.3568ZM37.1909 43.493C38.2788 43.1208 39.4406 43.0788 40.5535 43.3723L59.2321 48.2588C58.4459 49.2407 57.6689 50.6913 57.3897 52.7381L41.3503 48.421C41.3443 48.4194 41.3382 48.4179 41.3322 48.4162C39.9923 48.0767 38.5876 48.378 37.478 49.2421C36.3683 50.1063 35.7322 51.3943 35.733 52.776C35.7331 53.1507 35.5746 53.5106 35.2866 53.7896C34.9958 54.0713 34.6039 54.2328 34.2115 54.2328H33.2542V48.996C33.2542 46.509 34.836 44.2975 37.1909 43.493ZM4.7485 48.2687L23.4491 43.3717C24.5601 43.0787 25.7219 43.1207 26.8097 43.4933C29.1632 44.2973 30.7445 46.5087 30.7445 48.9961V54.2329H29.7887C28.9714 54.2329 28.2747 53.5719 28.2673 52.7895C28.254 51.3802 27.6039 50.0768 26.484 49.2137C25.3891 48.3701 23.9982 48.0796 22.6679 48.4162C22.6619 48.4178 22.6559 48.4194 22.6498 48.421L6.59052 52.7435C6.31056 50.699 5.53405 49.2497 4.7485 48.2687ZM60.8771 56.2759C61.2976 56.3891 61.5747 56.8046 61.465 57.2376L61.2145 58.2256C61.1085 58.6441 60.6837 58.8992 60.2652 58.7975L42.0727 53.8699C41.4207 53.6933 40.7457 54.0648 40.5458 54.7102C39.7028 57.4345 37.1235 59.3371 34.2736 59.3371H29.7266C26.8766 59.3371 24.2974 57.4344 23.4543 54.7102C23.2882 54.1732 22.7933 53.826 22.2562 53.826C22.1476 53.826 22.0372 53.8402 21.9275 53.8699L3.73506 58.7975C3.31682 58.8993 2.89179 58.6441 2.78576 58.2257C2.78576 58.2257 2.53541 57.2381 2.53528 57.2376C2.43238 56.8318 2.68261 56.3877 3.10525 56.2805C3.11114 56.279 3.11717 56.2775 3.12306 56.2759L23.2918 50.8472C24.0814 50.6502 24.6702 50.9843 24.9519 51.2014C25.458 51.5914 25.7516 52.1788 25.7577 52.8131C25.7782 54.9797 27.5865 56.7424 29.7887 56.7424H34.2113C35.2645 56.7424 36.2664 56.3341 37.0323 55.5925C37.8133 54.8362 38.243 53.8355 38.2425 52.7745C38.2421 52.173 38.5255 51.607 39.0199 51.222C39.5118 50.8389 40.1264 50.7026 40.7079 50.8469C40.708 50.8472 60.8697 56.2739 60.8771 56.2759Z" fill="#052A75"/>
</g>
<defs>
<clipPath id="clip0_1514_5297">
<rect width="64" height="64" fill="white"/>
</clipPath>
</defs>
</svg>
