<svg width="64" height="64" viewBox="0 0 64 64" fill="none" xmlns="http://www.w3.org/2000/svg">
<g clip-path="url(#clip0_1514_5788)">
<path d="M51.2634 24.3456H35.9546V42.7921H51.2634V24.3456Z" fill="#F7B073"/>
<path d="M58.9178 43.796H5.08203V62.745H58.9178V43.796Z" fill="#FD8F01"/>
<path d="M58.9178 43.796H5.08203V53.1133H58.9178V43.796Z" fill="#FD6050"/>
<path d="M62.7451 39.6544H1.25488V47.3088H62.7451V39.6544Z" fill="#FDCB50"/>
<path d="M20.3424 36.4407C20.681 34.3543 19.2641 32.3884 17.1776 32.0498C15.0912 31.7112 13.1253 33.128 12.7867 35.2145C12.4481 37.3009 13.865 39.2668 15.9514 39.6054C18.0378 39.944 20.0037 38.5272 20.3424 36.4407Z" fill="#B1D952"/>
<path d="M26.9238 38.5332C28.4184 37.0386 28.4184 34.6154 26.9238 33.1208C25.4292 31.6262 23.006 31.6262 21.5114 33.1208C20.0168 34.6154 20.0168 37.0386 21.5114 38.5332C23.006 40.0278 25.4292 40.0278 26.9238 38.5332Z" fill="#B1D952"/>
<path d="M23.0967 30.8789C24.5913 29.3843 24.5913 26.9611 23.0967 25.4665C21.6021 23.9719 19.1788 23.9719 17.6842 25.4665C16.1896 26.9611 16.1896 29.3843 17.6842 30.8789C19.1788 32.3735 21.6021 32.3735 23.0967 30.8789Z" fill="#B1D952"/>
<path d="M16.5637 9.03678C16.5637 13.2642 13.1367 16.6912 8.90928 16.6912C4.6819 16.6912 1.25488 13.2643 1.25488 9.03678V1.25488H62.7451V9.03678C62.7451 13.2642 59.3181 16.6912 55.0907 16.6912C50.8633 16.6912 47.4363 13.2642 47.4363 9.03678C47.4363 13.2642 44.0093 16.6912 39.7819 16.6912C35.5545 16.6912 32 13.2643 32 9.03678C32 13.2642 28.4455 16.6912 24.2181 16.6912C19.9907 16.6912 16.5637 13.2643 16.5637 9.03678Z" fill="white"/>
<path d="M16.5637 9.03678C16.5637 13.2642 13.1367 16.6912 8.90928 16.6912C4.6819 16.6912 1.25488 13.2643 1.25488 9.03678V1.25488H16.5637V9.03678Z" fill="#FDCB50"/>
<path d="M47.3725 9.03678C47.3725 13.2642 43.9455 16.6912 39.7181 16.6912C35.4907 16.6912 32.0637 13.2642 32.0637 9.03678V1.25488H47.3725V9.03678Z" fill="#FDCB50"/>
<path d="M64 9.03655V1.2549C64 0.562196 63.4378 0 62.7451 0H1.2549C0.562196 0 0 0.562196 0 1.2549V9.03655C0 12.0621 1.51592 14.7388 3.82745 16.3501V38.4H1.2549C0.562196 38.4 0 38.9609 0 39.6549V47.3086C0 48.0013 0.562196 48.5635 1.2549 48.5635H3.82745V62.7451C3.82745 63.4378 4.38965 64 5.08235 64H58.9177C59.6104 64 60.1726 63.4378 60.1726 62.7451V48.5635H62.7451C63.4378 48.5635 64 48.0013 64 47.3086V39.6549C64 38.9609 63.4378 38.4 62.7451 38.4H60.1726V16.3501C62.4841 14.7388 64 12.0621 64 9.03655ZM11.4811 61.4902H6.33726V48.5635H11.4811V61.4902ZM19.136 61.4902H13.9909V48.5635H19.136V61.4902ZM26.7909 61.4902H21.6458V48.5635H26.7909V61.4902ZM34.6993 61.4902H29.3007V48.5635H34.6993V61.4902ZM42.3542 61.4902H37.2091V48.5635H42.3542V61.4902ZM50.0091 61.4902H44.864V48.5635H50.0091V61.4902ZM57.6628 61.4902H52.5189V48.5635H57.6628V61.4902ZM61.4902 40.9098V46.0536H2.5098V40.9098H61.4902ZM37.2091 38.4V25.6H42.3542V28.1726C42.3542 28.8653 42.9164 29.4275 43.6091 29.4275C44.3018 29.4275 44.864 28.8653 44.864 28.1726V25.6H50.0091V38.4H37.2091ZM51.264 23.0902H35.9542C35.2615 23.0902 34.6993 23.6524 34.6993 24.3451V38.4H28.6005C29.0447 37.6446 29.3007 36.7649 29.3007 35.8275C29.3007 33.206 27.3054 31.0425 24.7555 30.774C25.211 30.0122 25.4733 29.1225 25.4733 28.1726C25.4733 25.3704 23.1931 23.0902 20.3909 23.0902C17.5887 23.0902 15.3085 25.3704 15.3085 28.1726C15.3085 29.1225 15.5708 30.0122 16.0264 30.774C13.4764 31.0425 11.4811 33.206 11.4811 35.8275C11.4811 36.7649 11.7371 37.6446 12.1813 38.4H6.33726V17.5674C7.15169 17.8146 8.01506 17.9464 8.9098 17.9464C12.1587 17.9464 15.0074 16.1983 16.5635 13.5918C18.1195 16.1983 20.9694 17.9464 24.2184 17.9464C26.6002 17.9464 28.8565 17.0227 30.5719 15.3462C31.1316 14.7991 31.6097 14.1955 32 13.5479C32.3903 14.1955 32.8684 14.8003 33.4281 15.3462C35.1435 17.0227 37.3998 17.9464 39.7817 17.9464C43.0306 17.9464 45.8805 16.1983 47.4366 13.5918C48.9926 16.1983 51.8413 17.9464 55.0902 17.9464C55.9849 17.9464 56.8483 17.8146 57.6628 17.5674V38.4H52.5189V24.3451C52.5189 23.6524 51.9567 23.0902 51.264 23.0902ZM17.8184 28.1726C17.8184 26.7545 18.9729 25.6 20.3909 25.6C21.8089 25.6 22.9635 26.7545 22.9635 28.1726C22.9635 29.5906 21.8089 30.7451 20.3909 30.7451C18.9729 30.7451 17.8184 29.5906 17.8184 28.1726ZM19.136 35.8275C19.136 37.2455 17.9815 38.4 16.5635 38.4C15.1454 38.4 13.9909 37.2455 13.9909 35.8275C13.9909 34.4094 15.1454 33.2549 16.5635 33.2549C17.9815 33.2549 19.136 34.4094 19.136 35.8275ZM24.2184 33.2549C25.6364 33.2549 26.7909 34.4094 26.7909 35.8275C26.7909 37.2455 25.6364 38.4 24.2184 38.4C22.8003 38.4 21.6458 37.2455 21.6458 35.8275C21.6458 34.4094 22.8003 33.2549 24.2184 33.2549ZM55.0902 15.4366C51.5614 15.4366 48.6915 12.5653 48.6915 9.03655C48.6915 9.02275 48.6915 9.00769 48.6902 8.99514C48.6902 8.32753 48.0878 7.78165 47.4366 7.78165C46.7602 7.78165 46.1817 8.3589 46.1817 9.03655C46.1817 12.5653 43.3104 15.4366 39.7817 15.4366C36.1826 15.4366 33.2549 12.5653 33.2549 9.03655C33.2549 8.37271 32.7115 7.80926 32.0502 7.7829C32.0339 7.78165 32.0163 7.78165 32 7.78165C31.3525 7.78165 30.8041 8.32 30.7489 8.95875C30.7464 8.9851 30.7451 9.0102 30.7451 9.03655C30.7451 12.5653 27.8174 15.4366 24.2184 15.4366C20.6896 15.4366 17.8184 12.5653 17.8184 9.03655C17.8184 8.44173 17.3816 7.91341 16.7969 7.80298C16.7203 7.78918 16.6413 7.78165 16.5635 7.78165C15.9699 7.78165 15.4441 8.21459 15.3311 8.79686C15.3161 8.87592 15.3085 8.95624 15.3085 9.03655C15.3085 12.5653 12.4386 15.4366 8.9098 15.4366C5.38102 15.4366 2.5098 12.5653 2.5098 9.03655V2.5098H61.4902V9.03655C61.4902 12.5653 58.619 15.4366 55.0902 15.4366Z" fill="#1C2E72"/>
</g>
<defs>
<clipPath id="clip0_1514_5788">
<rect width="64" height="64" fill="white"/>
</clipPath>
</defs>
</svg>
