<svg width="64" height="64" viewBox="0 0 64 64" fill="none" xmlns="http://www.w3.org/2000/svg">
<g clip-path="url(#clip0_1514_5663)">
<path d="M56.3302 14.9384L57.1616 19.6534C58.5294 27.4107 58.4627 35.3531 56.9648 43.0864C56.5129 45.4195 56.4927 47.8159 56.9055 50.1563C57.3808 52.8521 58.4202 55.417 59.9559 57.6831C60.6505 58.7081 60.0578 60.1083 58.8385 60.3234L45.2536 62.7188C44.0343 62.9337 42.9984 61.8206 43.3006 60.6199C43.9684 57.9653 44.0681 55.1996 43.5927 52.5038C43.18 50.1635 42.3416 47.9186 41.1189 45.8807C37.0665 39.1262 34.2874 31.6855 32.9195 23.9282L32.0881 19.2132L56.3302 14.9384Z" fill="#D2DCFD"/>
<path d="M7.66983 14.9384L6.83846 19.6534C5.47062 27.4107 5.53738 35.3531 7.03523 43.0864C7.48712 45.4195 7.50732 47.8159 7.09458 50.1563C6.61923 52.8521 5.57979 55.417 4.04417 57.6831C3.34958 58.7081 3.94227 60.1083 5.16153 60.3234L18.7466 62.7188C19.9659 62.9337 21.0018 61.8206 20.6996 60.6199C20.0317 57.9653 19.9321 55.1996 20.4075 52.5038C20.8202 50.1635 21.6586 47.9186 22.8813 45.8807C26.9337 39.1262 29.7128 31.6855 31.0807 23.9282L31.912 19.2132L7.66983 14.9384Z" fill="#D2DCFD"/>
<path d="M57.7109 53.226C57.3604 52.2289 57.0898 51.2026 56.9052 50.1562C56.4925 47.8158 56.5127 45.4196 56.9646 43.0863C58.4624 35.3531 58.5292 27.4107 57.1613 19.6533L56.33 14.9382L47.347 16.5222L37.0668 18.3349L32.0876 19.2128L32.919 23.9278C34.2869 31.6852 37.066 39.1258 41.1184 45.8804C42.3411 47.9182 43.1796 50.1631 43.5922 52.5035C43.7767 53.5498 43.8734 54.6068 43.8851 55.6637L57.7109 53.226Z" fill="#FDCB50"/>
<path d="M49.7209 10.3107C49.0582 10.4275 48.443 10.6551 47.8898 10.97C46.5238 9.92894 44.7441 9.43927 42.9192 9.76103C41.0943 10.0828 39.5894 11.1517 38.6618 12.5972C38.0343 12.4907 37.3784 12.4871 36.7157 12.604C33.6127 13.1511 31.5407 16.1102 32.0879 19.2132L37.0514 18.338L37.0669 18.3353C38.2255 18.131 39.3302 18.9045 39.5345 20.063L39.8714 21.9737C40.1677 23.654 41.7701 24.7759 43.4503 24.4797C45.1306 24.1834 46.2524 22.581 45.9562 20.9008L45.6192 18.9901C45.4149 17.8316 46.1884 16.7269 47.347 16.5226L56.3299 14.9386C55.7829 11.8354 52.8239 9.76354 49.7209 10.3107Z" fill="white"/>
<path d="M56.9052 50.1562C56.6478 48.6968 56.559 47.2156 56.6379 45.7415C46.5495 40.4902 39.6055 30.0322 39.3677 17.9292L37.0667 18.3349L32.0876 19.2128L32.919 23.9279C34.2869 31.6852 37.066 39.1259 41.1184 45.8804C42.3411 47.9182 43.1796 50.1631 43.5922 52.5035C43.7767 53.5498 43.8734 54.6068 43.8851 55.6637C48.6212 56.064 53.3971 55.222 57.7107 53.226C57.3604 52.2289 57.0898 51.2027 56.9052 50.1562Z" fill="#FD8F01"/>
<path d="M6.28886 53.226C6.63936 52.2289 6.90992 51.2026 7.09451 50.1562C7.50725 47.8158 7.48705 45.4196 7.03515 43.0863C5.5373 35.3531 5.47054 27.4107 6.83839 19.6533L7.66976 14.9382L16.6527 16.5222L26.9329 18.3349L31.9121 19.2128L31.0807 23.9278C29.7129 31.6852 26.9338 39.1258 22.8813 45.8804C21.6587 47.9182 20.8201 50.1631 20.4075 52.5035C20.223 53.5498 20.1263 54.6068 20.1146 55.6637L6.28886 53.226Z" fill="#FDCB50"/>
<path d="M27.2843 12.6038C26.6216 12.4869 25.9656 12.4904 25.3382 12.597C24.4104 11.1515 22.9056 10.0825 21.0808 9.76077C19.2559 9.43902 17.4762 9.9288 16.1101 10.9697C15.557 10.655 14.9418 10.4273 14.2791 10.3104C11.1761 9.76328 8.21706 11.8353 7.66992 14.9382L16.6529 16.5222C17.8114 16.7265 18.5849 17.8312 18.3806 18.9897L18.0437 20.9004C17.7474 22.5807 18.8694 24.183 20.5496 24.4793C22.2299 24.7755 23.8322 23.6535 24.1285 21.9734L24.4654 20.0626C24.6697 18.9041 25.7744 18.1306 26.9329 18.3349L26.9485 18.3377L31.912 19.2128C32.4593 16.11 30.3873 13.151 27.2843 12.6038Z" fill="white"/>
<path d="M7.30094 17.2879C7.30094 17.195 7.3037 17.1029 7.30446 17.0103L6.83839 19.6535C5.47054 27.4108 5.5373 35.3532 7.03515 43.0864C7.48704 45.4195 7.50712 47.8159 7.09451 50.1563C6.91004 51.2026 6.63948 52.229 6.28886 53.2262C10.6025 55.2222 15.3782 56.0644 20.1145 55.6639C20.1262 54.6071 20.2229 53.5501 20.4074 52.5037C20.82 50.1633 21.6585 47.9184 22.8812 45.8806C23.0421 45.6125 23.2002 45.3429 23.357 45.0727C13.76 39.5332 7.30094 29.165 7.30094 17.2879Z" fill="#FD8F01"/>
<path d="M60.9948 56.979C59.5491 54.8455 58.5889 52.4766 58.1413 49.9383C57.7539 47.7407 57.7726 45.5157 58.1969 43.325C59.7298 35.4113 59.7973 27.3738 58.3974 19.4354L57.5661 14.7204C56.8997 10.941 53.2825 8.40822 49.5032 9.0747C48.981 9.16681 48.4751 9.31665 47.9912 9.52195C46.4159 8.56521 44.529 8.2028 42.7015 8.52493C40.874 8.84719 39.2248 9.83316 38.0717 11.271C37.5469 11.2435 37.0201 11.2758 36.4979 11.3678C34.6032 11.7018 33.0222 12.7777 32.0001 14.2434C30.978 12.7775 29.3969 11.7018 27.5023 11.3678C26.9798 11.2757 26.453 11.2435 25.9284 11.271C24.7755 9.83316 23.1262 8.84731 21.2987 8.52493C19.471 8.2028 17.5841 8.56521 16.009 9.52195C15.5253 9.31665 15.0192 9.16681 14.4971 9.0747C12.6659 8.75194 10.8192 9.16129 9.29627 10.2277C7.77344 11.294 6.7571 12.8892 6.43421 14.72C6.43421 14.7201 6.43421 14.7203 6.43409 14.7205L5.60271 19.4355C4.203 27.3739 4.27051 35.4115 5.80337 43.3251C6.22765 45.5158 6.24635 47.7407 5.85884 49.9383C5.41134 52.4765 4.45134 54.8452 3.00544 56.979C2.43961 57.814 2.33645 58.867 2.72961 59.7958C3.12265 60.7247 3.95051 61.3838 4.94376 61.559L18.5287 63.9543C18.702 63.9849 18.8756 63.9999 19.0477 63.9999C19.8624 63.9999 20.6451 63.6643 21.2124 63.0547C21.8995 62.3163 22.1628 61.2914 21.9166 60.3134C21.2877 57.8138 21.1957 55.2595 21.6434 52.7213C22.0309 50.5239 22.8094 48.4393 23.9574 46.5259C27.8132 40.0991 30.5145 33.1383 32.0001 25.8118C33.4858 33.1386 36.1871 40.0994 40.0427 46.5257C41.1907 48.4394 41.9694 50.5237 42.3568 52.7213C42.8043 55.2594 42.7123 57.8137 42.0833 60.3134C41.8373 61.2914 42.1007 62.3162 42.7876 63.0547C43.3549 63.6643 44.1375 63.9999 44.9523 63.9999C45.1243 63.9999 45.298 63.9848 45.4713 63.9543L59.0564 61.559C60.0497 61.3838 60.8774 60.7247 61.2705 59.7958C61.6637 58.867 61.5607 57.8141 60.9948 56.979ZM29.8449 23.7101C28.4988 31.3449 25.7938 38.5869 21.8053 45.235C20.4988 47.4127 19.6127 49.785 19.1717 52.2857C18.6624 55.1744 18.767 58.0814 19.4827 60.9261C19.535 61.1339 19.4376 61.278 19.375 61.3453C19.3123 61.4127 19.1759 61.5203 18.9645 61.4829L5.37959 59.0874C5.16839 59.0503 5.07678 58.9025 5.04089 58.8178C5.005 58.7331 4.96284 58.5644 5.08306 58.387C6.72849 55.9586 7.82113 53.2628 8.33037 50.3742C8.77134 47.8731 8.75013 45.341 8.26712 42.8478C6.79286 35.2366 6.72798 27.5063 8.07424 19.8713L8.68776 16.392L16.4349 17.7581C16.9101 17.8418 17.2285 18.2967 17.1448 18.7718L16.8079 20.6827C16.392 23.0418 17.9728 25.2995 20.3317 25.7153C20.5866 25.7603 20.8419 25.7825 21.0954 25.7825C21.9786 25.7825 22.8393 25.5128 23.5779 24.9956C24.5284 24.33 25.1629 23.3342 25.3644 22.1913L25.7014 20.2806C25.7851 19.8054 26.2407 19.487 26.7141 19.5706L26.7296 19.5733L30.4584 20.2308L29.8449 23.7101ZM27.1509 17.0992C25.3131 16.7748 23.5537 18.0067 23.2296 19.8449L22.8926 21.7556C22.8075 22.2382 22.5396 22.6588 22.1382 22.9399C21.7369 23.221 21.2502 23.3291 20.7675 23.2437C19.7713 23.0681 19.1037 22.1146 19.2794 21.1185L19.6163 19.2077C19.9403 17.3696 18.7087 15.6106 16.8706 15.2865L9.30016 13.9516C9.62668 13.2908 10.1151 12.7183 10.7358 12.2837C11.7096 11.6018 12.8903 11.3401 14.0611 11.5465C14.5657 11.6355 15.0464 11.8084 15.4893 12.0606C15.9265 12.3095 16.4703 12.2731 16.8706 11.9681C18.0052 11.1035 19.4602 10.7492 20.8628 10.9968C22.2653 11.2442 23.5115 12.0745 24.2821 13.275C24.5539 13.6985 25.0524 13.9187 25.5484 13.8344C26.0512 13.7491 26.562 13.7507 27.0664 13.8397C28.2371 14.0461 29.2574 14.696 29.9392 15.6697C30.3737 16.2904 30.6369 16.9954 30.7177 17.7281L27.1509 17.0992ZM36.9336 13.8396C37.4382 13.7506 37.9491 13.7488 38.4517 13.8343C38.9478 13.9186 39.4462 13.6984 39.7179 13.275C40.4886 12.0744 41.7347 11.2441 43.1372 10.9967C44.5396 10.7495 45.9947 11.1035 47.1294 11.968C47.5295 12.2729 48.0732 12.3093 48.5106 12.0605C48.9538 11.8084 49.4343 11.6353 49.9389 11.5464C51.9275 11.1959 53.8429 12.2297 54.698 13.9518L47.1294 15.2863C45.2914 15.6105 44.0597 17.3696 44.3838 19.2077L44.7208 21.1185C44.8059 21.601 44.6978 22.0879 44.4168 22.4892C44.1357 22.8907 43.7152 23.1586 43.2326 23.2437C42.7497 23.3288 42.263 23.2208 41.8619 22.9399C41.4604 22.6588 41.1925 22.2382 41.1073 21.7557L40.7703 19.8449C40.6133 18.9545 40.119 18.1786 39.3784 17.66C38.638 17.1417 37.74 16.9426 36.8491 17.0993L33.2843 17.7279C33.4992 15.8168 34.9462 14.1901 36.9336 13.8396ZM58.9593 58.8178C58.9234 58.9025 58.8316 59.0503 58.6207 59.0874L45.0356 61.4828C44.8249 61.5202 44.6879 61.4125 44.6251 61.3451C44.5624 61.2777 44.4651 61.1337 44.5174 60.9259C45.2331 58.0811 45.3378 55.1742 44.8284 52.2856C44.3876 49.7847 43.5015 47.4125 42.195 45.2347C38.2066 38.5871 35.5016 31.3451 34.1552 23.71L33.5419 20.2308L37.2705 19.5733L37.2851 19.5707C37.7608 19.4862 38.215 19.8054 38.2989 20.2805L38.6359 22.1913C39.0071 24.2964 40.8445 25.7816 42.912 25.7816C43.1613 25.7816 43.4145 25.76 43.6684 25.7152C44.8111 25.5138 45.8071 24.8792 46.4727 23.9287C47.1383 22.9781 47.394 21.8253 47.1923 20.6825L46.8554 18.7717C46.7717 18.2965 47.09 17.8417 47.5651 17.758L55.3123 16.3919L55.9258 19.8711C57.272 27.5061 57.2072 35.2364 55.7329 42.8476C55.2499 45.3407 55.2286 47.8729 55.6697 50.374C56.179 53.2628 57.2717 55.9587 58.9171 58.3867C59.0373 58.5643 58.995 58.7331 58.9593 58.8178Z" fill="#052A75"/>
<path d="M35.1865 8.03203C35.0694 8.03203 34.9506 8.01559 34.8326 7.98095C34.1677 7.78569 33.7868 7.08846 33.9821 6.42337L35.6028 0.901798C35.798 0.236826 36.495 -0.144037 37.1602 0.0511002C37.8252 0.246363 38.2061 0.943586 38.0108 1.60868L36.3901 7.13025C36.2295 7.67726 35.7291 8.03203 35.1865 8.03203Z" fill="#67CCD1"/>
<path d="M28.7824 8.03202C28.2398 8.03202 27.7393 7.67726 27.5788 7.13025L25.9581 1.60868C25.7629 0.943706 26.1437 0.246357 26.8088 0.0510941C27.4736 -0.144169 28.1712 0.236694 28.3664 0.901792L29.9871 6.42336C30.1823 7.08833 29.8015 7.78568 29.1364 7.98094C29.0185 8.01558 28.8995 8.03202 28.7824 8.03202Z" fill="#67CCD1"/>
<path d="M12.4036 28.8517C11.5396 28.879 10.8879 27.9058 11.2441 27.1175C11.6475 26.0962 13.1598 26.095 13.5619 27.1175C13.9184 27.9057 13.2677 28.8781 12.4036 28.8517Z" fill="white"/>
<path d="M17.1609 45.0111C15.9316 45.0116 15.4415 43.3938 16.4644 42.7121C17.0927 42.2735 18.0443 42.5594 18.3204 43.2756C18.676 44.0664 18.0263 45.0355 17.1609 45.0111Z" fill="white"/>
<path d="M13.2984 37.6625C12.4338 37.6858 11.7831 36.7166 12.1401 35.927C12.5498 34.9051 14.0463 34.9022 14.4567 35.927C14.8135 36.7164 14.1631 37.6861 13.2984 37.6625Z" fill="white"/>
<path d="M21.2607 32.3856C20.0308 32.3879 19.5403 30.7681 20.563 30.0867C20.9744 29.8077 21.5457 29.8077 21.9572 30.0867C22.9807 30.7695 22.4893 32.3855 21.2607 32.3856Z" fill="white"/>
<path d="M51.4209 28.8517C50.5564 28.8787 49.9061 27.9051 50.2628 27.1175C50.6651 26.0951 52.1769 26.0961 52.5804 27.1175C52.9363 27.9058 52.285 28.8792 51.4209 28.8517Z" fill="white"/>
<path d="M46.6637 45.0111C45.7983 45.0353 45.1476 44.0667 45.5041 43.2756C45.917 42.253 47.4088 42.253 47.8219 43.2756C48.1783 44.0662 47.528 45.0347 46.6637 45.0111Z" fill="white"/>
<path d="M50.5261 37.6625C50.1149 37.664 49.7091 37.4478 49.4821 37.1041C48.738 35.9591 50.079 34.6178 51.2226 35.3635C52.2471 36.0421 51.7543 37.6639 50.5261 37.6625Z" fill="white"/>
<path d="M42.5649 32.3857C41.3352 32.3875 40.8443 30.7685 41.8672 30.0867C42.5733 29.5847 43.6495 30.0321 43.7947 30.8848C43.9651 31.6332 43.3307 32.4036 42.5649 32.3857Z" fill="white"/>
</g>
<defs>
<clipPath id="clip0_1514_5663">
<rect width="64" height="64" fill="white"/>
</clipPath>
</defs>
</svg>
