<svg width="64" height="64" viewBox="0 0 64 64" fill="none" xmlns="http://www.w3.org/2000/svg">
<g clip-path="url(#clip0_1514_5463)">
<path fill-rule="evenodd" clip-rule="evenodd" d="M53.7845 2.2916L61.7084 10.2155C63.0973 11.6043 63.0973 13.8768 61.7084 15.2656L31.3715 45.6026C29.983 46.9912 28.4557 47.0806 26.7783 46.0595C24.8095 44.8611 23.6187 45.4633 22.461 46.621C19.4151 49.6667 14.7008 54.3812 11.655 57.427C12.5704 58.7475 12.441 60.5861 11.267 61.7601V61.7602C9.94778 63.0796 7.78878 63.0796 6.4694 61.7602L2.23978 57.5306C0.9204 56.2112 0.9204 54.0522 2.23978 52.733C3.41378 51.559 5.25253 51.4296 6.57303 52.345C9.61878 49.2992 14.3333 44.5847 17.379 41.539C18.5367 40.3813 19.1389 39.1905 17.9405 37.2217C16.9194 35.5443 17.0087 34.0172 18.3975 32.6285L48.7344 2.2916C50.1231 0.90272 52.3956 0.90272 53.7845 2.2916Z" fill="#FDE0BE"/>
<path fill-rule="evenodd" clip-rule="evenodd" d="M59.2234 17.7505L40.5862 36.3877C38.2013 34.0029 36.7263 30.7084 36.7263 27.0691C36.7263 19.7909 42.6266 13.8906 49.9048 13.8906C53.5439 13.8906 56.8386 15.3657 59.2234 17.7505Z" fill="#F7B073"/>
<path fill-rule="evenodd" clip-rule="evenodd" d="M22.4609 46.6211C23.6185 45.4634 24.8095 44.8612 26.7782 46.0596C28.4555 47.0806 29.9829 46.9912 31.3714 45.6027L33.2838 43.6903L20.3097 30.7161L18.3973 32.6284C17.0085 34.0172 16.9193 35.5443 17.9403 37.2217C19.1387 39.1904 18.5364 40.3813 17.3788 41.5389C14.333 44.5848 9.61853 49.2992 6.57278 52.3449C5.25228 51.4296 3.41366 51.5589 2.23953 52.7329C0.920156 54.0523 0.920156 56.2112 2.23953 57.5306L6.46916 61.7602C7.78853 63.0796 9.94753 63.0796 11.2668 61.7601C12.4408 60.5861 12.5702 58.7473 11.6548 57.4269C14.7007 54.3813 19.415 49.6668 22.4609 46.6211Z" fill="#D46B5C"/>
<path fill-rule="evenodd" clip-rule="evenodd" d="M22.4609 46.6211L17.3788 41.5389C14.333 44.5848 9.61853 49.2992 6.57278 52.3449C5.25228 51.4296 3.41366 51.5589 2.23953 52.7329C0.920156 54.0523 0.920156 56.2112 2.23953 57.5306L6.46916 61.7602C7.78853 63.0796 9.94753 63.0796 11.2668 61.7601C12.4408 60.5861 12.5702 58.7473 11.6548 57.4269C14.7007 54.3813 19.415 49.6668 22.4609 46.6211Z" fill="#FDCB50"/>
<path d="M52.7884 34.0263C56.6309 32.4347 58.4556 28.0294 56.864 24.1868C55.2723 20.3443 50.867 18.5196 47.0244 20.1113C43.1819 21.7029 41.3572 26.1082 42.9489 29.9508C44.5405 33.7933 48.9458 35.618 52.7884 34.0263Z" fill="#FD6050"/>
<path d="M56.7799 28.3192H43.03C42.3398 28.3192 41.78 27.7595 41.78 27.0692C41.78 26.3788 42.3398 25.8192 43.03 25.8192H56.7799C57.4702 25.8192 58.0299 26.3788 58.0299 27.0692C58.0299 27.7595 57.4702 28.3192 56.7799 28.3192Z" fill="white"/>
<path d="M63.9999 12.7406C63.9999 11.4501 63.5 10.2395 62.5921 9.33162L54.6681 1.40775C53.7604 0.5 52.5499 0 51.2593 0C49.9686 0 48.758 0.5 47.8503 1.40775L17.5134 31.7446C15.7615 33.4966 15.5339 35.6725 16.8726 37.8716C17.6454 39.1413 17.4454 39.7046 16.495 40.6551L6.33862 50.8115C4.65037 50.1461 2.68587 50.5192 1.35575 51.8491C0.4815 52.7234 2.43256e-08 53.8891 2.43256e-08 55.1319C-0.000124976 56.3746 0.4815 57.5405 1.35563 58.4146L5.58537 62.6442C6.4595 63.5185 7.62537 64 8.86812 64C10.1108 64 11.2768 63.5185 12.1509 62.6442C13.4809 61.3142 13.8539 59.3497 13.1885 57.6614L23.3449 47.505C24.2954 46.5545 24.8586 46.3545 26.1284 47.1274C28.3274 48.4659 30.5033 48.2385 32.2555 46.4866L44.6459 34.0962C46.1129 35.197 47.9342 35.8498 49.9053 35.8498C54.7467 35.8498 58.6857 31.9107 58.6857 27.0691C58.6857 25.0981 58.033 23.2769 56.9323 21.8099L62.5924 16.1496C63.5 15.2419 63.9999 14.0312 63.9999 12.7406ZM49.905 33.3498C46.4419 33.3498 43.6244 30.5322 43.6244 27.0691C43.6244 23.606 46.4419 20.7885 49.905 20.7885C53.3681 20.7885 56.1855 23.606 56.1855 27.0691C56.1855 30.5322 53.3681 33.3498 49.905 33.3498ZM60.8244 14.3818L55.1642 20.042C53.6973 18.9412 51.8759 18.2885 49.905 18.2885C45.0634 18.2885 41.1244 22.2275 41.1244 27.0691C41.1244 29.0401 41.7771 30.8615 42.8779 32.3285L30.4875 44.7188C29.5446 45.6618 28.6581 45.7405 27.428 44.9919C24.5833 43.26 22.7262 44.588 21.5769 45.7373L10.7709 56.5433C10.3435 56.9706 10.2832 57.6426 10.6275 58.1394C11.2189 58.9924 11.116 60.1436 10.383 60.8766C9.981 61.2786 9.443 61.5 8.86812 61.5C8.29325 61.5 7.75525 61.2786 7.35325 60.8765L3.1235 56.6469C2.72137 56.2449 2.50012 55.7069 2.50012 55.1319C2.50012 54.557 2.7215 54.019 3.1235 53.617C3.85625 52.884 5.00775 52.7811 5.86062 53.3724C6.35725 53.7165 7.02925 53.6564 7.45675 53.229L18.2628 42.423C19.412 41.2736 20.7396 39.4168 19.0081 36.5719C18.2593 35.3418 18.3384 34.4552 19.2812 33.5125L49.6181 3.1755C50.0536 2.73987 50.6365 2.5 51.2594 2.5C51.882 2.5 52.465 2.73987 52.9005 3.1755L60.8245 11.0994C61.2601 11.535 61.5 12.1178 61.5 12.7405C61.5 13.3633 61.26 13.9461 60.8244 14.3818Z" fill="#052A75"/>
</g>
<defs>
<clipPath id="clip0_1514_5463">
<rect width="64" height="64" fill="white"/>
</clipPath>
</defs>
</svg>
