<svg width="64" height="64" viewBox="0 0 64 64" fill="none" xmlns="http://www.w3.org/2000/svg">
<g clip-path="url(#clip0_372_6544)">
<path fill-rule="evenodd" clip-rule="evenodd" d="M3.13727 30.1008H36.3922C36.3922 20.5146 36.3922 11.1163 36.3922 1.25488H3.13727V30.1008Z" fill="white"/>
<path d="M62.7451 37.6461H32V62.745H62.7451V37.6461Z" fill="#D2DCFD"/>
<path fill-rule="evenodd" clip-rule="evenodd" d="M49.0426 53.2075C44.3559 53.2075 40.5213 57.2017 40.5213 62.0833V62.7451H57.5639V62.0833C57.5639 57.2016 53.7294 53.2075 49.0426 53.2075Z" fill="#BC9AF4"/>
<path fill-rule="evenodd" clip-rule="evenodd" d="M40.5213 62.0833C40.5213 57.2016 36.6867 53.2075 32 53.2075C27.3133 53.2075 23.4787 57.2017 23.4787 62.0833V62.7451H40.5213V62.0833Z" fill="#BC9AF4"/>
<path fill-rule="evenodd" clip-rule="evenodd" d="M23.4787 62.0833C23.4787 57.2016 19.6441 53.2075 14.9574 53.2075C10.2708 53.2075 6.43616 57.2017 6.43616 62.0833V62.7451H23.4787V62.0833Z" fill="#BC9AF4"/>
<path fill-rule="evenodd" clip-rule="evenodd" d="M40.0625 30.5505C40.575 31.3477 41.4698 31.8753 42.4871 31.8753H49.2298V26.1108H43.9807L40.9343 21.6031C40.0213 20.3018 38.2262 19.9868 36.9247 20.8997C35.6233 21.8127 35.3084 23.6078 36.2213 24.9093L40.0625 30.5505Z" fill="#FDCB50"/>
<path fill-rule="evenodd" clip-rule="evenodd" d="M40.0625 30.5506C40.575 31.3477 41.4699 31.8754 42.4871 31.8754H49.2298V26.1109H43.9807L42.4349 23.8235C41.7029 24.8143 41.127 25.9042 40.7232 27.0566C39.8714 27.2527 39.072 27.5872 38.3494 28.0346L40.0625 30.5506Z" fill="#FD8F01"/>
<path fill-rule="evenodd" clip-rule="evenodd" d="M42.4871 31.8754C40.9044 31.8805 39.6113 33.177 39.6113 34.7607C39.6113 36.3476 40.9096 37.6461 42.4965 37.6461H49.7064H49.7339H59.5742V31.103C59.5742 27.1106 56.3074 23.8433 52.3145 23.8433C50.2506 23.8433 48.3806 24.7162 47.0556 26.1109C45.8171 27.4145 45.0547 29.1741 45.0547 31.103V31.8754H42.4964C42.4934 31.8754 42.4903 31.8754 42.4871 31.8754Z" fill="#FDCB50"/>
<path d="M52.3145 23.8433C55.4333 23.8433 57.9615 21.315 57.9615 18.1962C57.9615 15.0774 55.4333 12.5491 52.3145 12.5491C49.1957 12.5491 46.6674 15.0774 46.6674 18.1962C46.6674 21.315 49.1957 23.8433 52.3145 23.8433Z" fill="#D46B5C"/>
<path d="M62.7451 37.6461H32V43.622H62.7451V37.6461Z" fill="#FDE0BE"/>
<path d="M62.7451 43.622H32V48.6416H62.7451V43.622Z" fill="#93B2F4"/>
<path d="M17.0881 52.7087C19.4595 51.5326 20.4286 48.6569 19.2525 46.2855C18.0765 43.9141 15.2007 42.945 12.8293 44.1211C10.4579 45.2971 9.48889 48.1729 10.6649 50.5443C11.841 52.9157 14.7167 53.8847 17.0881 52.7087Z" fill="#FDBEB9"/>
<path d="M34.4727 52.5184C36.7403 51.1531 37.4718 48.208 36.1065 45.9404C34.7412 43.6727 31.7962 42.9412 29.5285 44.3065C27.2609 45.6718 26.5294 48.6169 27.8947 50.8845C29.26 53.1522 32.2051 53.8837 34.4727 52.5184Z" fill="#D46B5C"/>
<path d="M52.3146 51.9183C54.2487 50.1112 54.3517 47.0784 52.5446 45.1443C50.7376 43.2102 47.7047 43.1072 45.7706 44.9142C43.8365 46.7213 43.7335 49.7541 45.5405 51.6883C47.3476 53.6224 50.3805 53.7254 52.3146 51.9183Z" fill="#FDBEB9"/>
<path d="M62.7451 36.3912H60.8292V31.103C60.8292 27.9255 59.0797 25.1489 56.4932 23.686C58.1473 22.424 59.2164 20.4326 59.2164 18.1962C59.2164 14.3905 56.1202 11.2942 52.3145 11.2942C48.5087 11.2942 45.4125 14.3905 45.4125 18.1962C45.4125 20.4326 46.4817 22.424 48.1358 23.686C47.5566 24.0136 47.0195 24.407 46.5347 24.856H44.6473L41.974 20.9005C41.9699 20.8945 41.9658 20.8885 41.9615 20.8824C40.9674 19.4654 39.2387 18.8633 37.6471 19.229V2.5098H38.2745C38.9675 2.5098 39.5294 1.94798 39.5294 1.2549C39.5294 0.56182 38.9675 0 38.2745 0H1.2549C0.561945 0 0 0.56182 0 1.2549C0 1.94798 0.56182 2.5098 1.2549 2.5098H1.88235V30.1008C1.88235 30.7939 2.44417 31.3557 3.13726 31.3557H18.5098V34.493C17.8167 34.493 17.2549 35.0548 17.2549 35.7479C17.2549 36.441 17.8167 37.0028 18.5098 37.0028H21.0196C21.7127 37.0028 22.2745 36.441 22.2745 35.7479C22.2745 35.0548 21.7127 34.493 21.0196 34.493V31.3557H36.3922C37.0851 31.3557 37.6471 30.7939 37.6471 30.1008V29.2331L39.0165 31.2444C39.1665 31.4753 39.3369 31.6882 39.5245 31.881C38.8017 32.6267 38.3562 33.6427 38.3562 34.7607C38.3562 35.3385 38.4763 35.8899 38.6926 36.3912H32C31.3069 36.3912 30.7451 36.953 30.7451 37.6461V42.4983C28.0107 43.0775 25.9525 45.5103 25.9525 48.4149C25.9525 50.1796 26.7123 51.7701 27.9219 52.8767C26.0459 53.7726 24.4885 55.2666 23.4787 57.1215C22.4689 55.2666 20.9116 53.7727 19.0356 52.8767C20.2452 51.7701 21.0052 50.1795 21.0052 48.4149C21.0052 45.0802 18.2922 42.3673 14.9576 42.3673C11.6229 42.3673 8.9098 45.0801 8.9098 48.4149C8.9098 50.1796 9.66965 51.7701 10.8792 52.8767C7.51912 54.4813 5.18111 58.0047 5.18111 62.0833V62.7451C5.18111 63.4382 5.74293 64 6.43602 64H62.7451C63.4381 64 64 63.4382 64 62.7451V37.6461C64 36.953 63.4381 36.3912 62.7451 36.3912ZM47.9223 18.1962C47.9223 15.7744 49.8926 13.804 52.3145 13.804C54.7363 13.804 56.7066 15.7744 56.7066 18.1962C56.7066 20.618 54.7363 22.5884 52.3145 22.5884C49.8926 22.5884 47.9223 20.618 47.9223 18.1962ZM4.39216 28.8459V2.5098H35.1373V20.9616C34.823 21.4325 34.6073 21.9679 34.5065 22.5422C34.3216 23.5965 34.5456 24.6596 35.1373 25.547V28.8459H4.39216ZM37.2587 24.2032C37.2554 24.1983 37.252 24.1935 37.2488 24.1887C36.9998 23.8337 36.9038 23.4029 36.9787 22.9759C37.0537 22.5487 37.2904 22.1764 37.6453 21.9273C38.3758 21.4149 39.3857 21.5901 39.9015 22.3163L42.941 26.8136C43.1743 27.1588 43.5639 27.3658 43.9807 27.3658H44.6646C44.1778 28.3582 43.8785 29.4586 43.8134 30.6205H42.4965C42.4899 30.6205 42.4832 30.6206 42.4766 30.6206C42.4739 30.6206 42.4713 30.6205 42.4686 30.6205C41.9204 30.6145 41.4154 30.3346 41.1179 29.8719C41.1118 29.8627 41.1058 29.8535 41.0995 29.8443L37.2587 24.2032ZM40.8661 34.7608C40.8661 33.8618 41.5975 33.1304 42.4965 33.1304H47.713C48.406 33.1304 48.9679 32.5686 48.9679 31.8755C48.9679 31.1824 48.406 30.6206 47.713 30.6206H46.3288C46.5754 27.5343 49.1657 25.0983 52.3145 25.0983C55.6257 25.0983 58.3194 27.7921 58.3194 31.1032V36.3914H53.5277C53.6338 36.1451 53.717 35.8856 53.7743 35.6155L54.9717 31.2894C55.1567 30.6214 54.7651 29.93 54.0971 29.7452C53.4291 29.5603 52.7379 29.9519 52.5528 30.6199L51.3443 34.986C51.3363 35.0153 51.3293 35.0449 51.3232 35.0746C51.1708 35.8371 50.5001 36.3888 49.7256 36.3914H42.4827C41.5915 36.3839 40.8661 35.6524 40.8661 34.7608ZM49.7004 38.901C49.7072 38.901 49.7134 38.901 49.7203 38.901C49.7241 38.901 49.7278 38.901 49.7314 38.901H61.4902V42.3671H33.2549V38.901H49.7004ZM49.0426 51.9527C47.0918 51.9527 45.5049 50.3656 45.5049 48.4149C45.5049 46.4641 47.0918 44.8771 49.0426 44.8771C50.9933 44.8771 52.5804 46.4641 52.5804 48.4149C52.5804 50.3656 50.9933 51.9527 49.0426 51.9527ZM44.9645 52.8767C43.0886 53.7726 41.5311 55.2666 40.5214 57.1215C39.5116 55.2666 37.9543 53.7726 36.0782 52.8767C37.2878 51.7701 38.0476 50.1796 38.0476 48.4149C38.0476 47.0948 37.6225 45.8724 36.902 44.8769H44.1407C43.4202 45.8723 42.9951 47.0948 42.9951 48.4149C42.9951 50.1795 43.7549 51.7701 44.9645 52.8767ZM28.4623 48.4149C28.4623 46.4641 30.0493 44.8771 32 44.8771C33.9507 44.8771 35.5378 46.4641 35.5378 48.4149C35.5378 50.3656 33.9507 51.9527 32 51.9527C30.0493 51.9527 28.4623 50.3656 28.4623 48.4149ZM14.9574 44.8771C16.9082 44.8771 18.4952 46.4641 18.4952 48.4149C18.4952 50.3656 16.9082 51.9527 14.9574 51.9527C13.0067 51.9527 11.4196 50.3656 11.4196 48.4149C11.4196 46.4641 13.0067 44.8771 14.9574 44.8771ZM7.71288 61.4902C8.00239 57.5641 11.141 54.4625 14.9574 54.4625C18.774 54.4625 21.9126 57.5642 22.202 61.4902H7.71288ZM24.7555 61.4902C25.045 57.5641 28.1836 54.4625 32 54.4625C35.8165 54.4625 38.9552 57.5642 39.2447 61.4902H24.7555ZM41.7982 61.4902C42.0877 57.5641 45.2262 54.4625 49.0426 54.4625C52.859 54.4625 55.9977 57.5642 56.2871 61.4902H41.7982ZM58.8022 61.4902C58.5881 57.6654 56.3169 54.403 53.1208 52.8767C54.3304 51.7701 55.0903 50.1796 55.0903 48.4149C55.0903 47.0948 54.6652 45.8724 53.9447 44.8769H61.4902V61.4902H58.8022Z" fill="#052A75"/>
<path d="M29.4979 7.521C28.8048 7.521 28.243 8.08282 28.243 8.7759V21.3249H10.0317C9.33861 21.3249 8.77679 21.8867 8.77679 22.5798C8.77679 23.2729 9.33861 23.8347 10.0317 23.8347H29.4979C30.1909 23.8347 30.7528 23.2729 30.7528 22.5798V8.7759C30.7528 8.08282 30.1908 7.521 29.4979 7.521Z" fill="#6864F7"/>
<path d="M10.0737 17.8688C10.313 18.0826 10.6117 18.1878 10.9092 18.1878C11.2542 18.1878 11.5977 18.0464 11.8456 17.7688L14.8512 14.4036L19.7214 14.4057H19.7219C20.0547 14.4057 20.3739 14.2734 20.6092 14.0381L22.6753 11.972C22.8536 12.4479 23.3125 12.7866 23.8506 12.7866C24.5437 12.7866 25.1055 12.2248 25.1055 11.5317V9.02187C25.1055 8.32879 24.5437 7.76697 23.8506 7.76697H21.3408C20.6478 7.76697 20.0859 8.32879 20.0859 9.02187C20.0859 9.55997 20.4246 10.0189 20.9005 10.1972L19.2021 11.8956L14.29 11.8936H14.2895C13.9322 11.8936 13.5917 12.0459 13.3536 12.3126L9.97369 16.097C9.51201 16.6138 9.55681 17.407 10.0737 17.8688Z" fill="#6864F7"/>
</g>
<defs>
<clipPath id="clip0_372_6544">
<rect width="64" height="64" fill="white"/>
</clipPath>
</defs>
</svg>
